<?xml version="1.0" encoding="UTF-8"?>
<svg version="1.1" xmlns="http://www.w3.org/2000/svg" width="1156" height="1136">
<path d="M0 0 C381.48 0 762.96 0 1156 0 C1156 374.88 1156 749.76 1156 1136 C774.52 1136 393.04 1136 0 1136 C0 761.12 0 386.24 0 0 Z " fill="#8F6C43" transform="translate(0,0)"/>
<path d="M0 0 C151.38153139 0 151.38153139 0 170.8125 4.1875 C172.34801514 4.51004761 172.34801514 4.51004761 173.91455078 4.83911133 C194.19861831 9.30450436 215.2550372 17.0381206 231 31 C231.64453125 31.50402344 232.2890625 32.00804687 232.953125 32.52734375 C248.03264641 44.66813953 256.52942624 62.56572087 261 81 C261.39989136 82.56439819 261.39989136 82.56439819 261.80786133 84.16040039 C263.98228982 93.28806283 264.48184108 101.99643972 264.375 111.3125 C264.37034729 112.03644958 264.36569458 112.76039917 264.36090088 113.50628662 C264.12794649 144.43119547 254.06514142 168.12149931 232.7109375 190.38671875 C224.19030607 198.54134368 205.38672087 215 193 215 C199.71930229 225.11818569 206.5136228 235.18518521 213.3125 245.25 C214.50654769 247.018204 215.70055732 248.78643369 216.89453125 250.5546875 C219.36915678 254.21950007 221.84394417 257.88420326 224.31884766 261.54882812 C229.49146993 269.20827169 234.66208397 276.86907059 239.83273315 284.52984619 C241.50895314 287.0132646 243.18524941 289.4966315 244.86157227 291.97998047 C249.96307157 299.53749383 255.06438381 307.09513316 260.16474915 314.65341187 C261.8879677 317.20699972 263.61134074 319.76048328 265.3347168 322.31396484 C267.589515 325.65494498 269.84350433 328.99646873 272.09692383 332.33837891 C277.64972497 340.57111244 283.21670877 348.79375616 288.80859375 357 C290.41999837 359.36840103 292.03104848 361.73704277 293.64196777 364.10577393 C294.6652447 365.60819921 295.69020601 367.10947879 296.71691895 368.60955811 C298.12131797 370.66145936 299.52020462 372.71701329 300.91796875 374.7734375 C301.54390175 375.68283081 301.54390175 375.68283081 302.18247986 376.6105957 C305 380.7724065 305 380.7724065 305 383 C293.47445253 383.46496939 281.95115778 383.81949837 270.41811752 384.03624344 C265.06116691 384.1403256 259.71066084 384.28120106 254.35742188 384.50878906 C219.81573206 385.93940378 219.81573206 385.93940378 211.95861816 381.14361572 C207.5176353 376.59905554 205.43471645 371.43999319 203.72839355 365.39599609 C202.77331822 362.25434726 201.21132543 359.82097289 199.328125 357.1484375 C198.81749512 356.3541333 198.30686523 355.5598291 197.78076172 354.74145508 C197.27561035 353.9605249 196.77045898 353.17959473 196.25 352.375 C190.32530132 343.14012886 184.55559121 333.81643159 178.82128906 324.46240234 C174.92521207 318.11264586 170.99501574 311.78794416 167 305.5 C161.55851604 296.93428606 156.24667145 288.29122817 150.93945312 279.6418457 C146.83629844 272.96239469 142.69679875 266.30849867 138.5 259.6875 C130.87145411 247.64047784 130.87145411 247.64047784 128.25 243.4375 C127.61578125 242.42558594 126.9815625 241.41367187 126.328125 240.37109375 C125 238 125 238 125 236 C110.48 236 95.96 236 81 236 C81 284.51 81 333.02 81 383 C54.27 383 27.54 383 0 383 C0 256.61 0 130.22 0 0 Z " fill="#000000" transform="translate(439,311)"/>
<path d="M0 0 C72.43452381 0 72.43452381 0 90.546875 17.2890625 C101.20574513 29.8390225 102.12211076 44.23033635 101 60 C99.47471194 71.61761074 94.28170846 82.63032348 85 90 C61.14391006 107.63086939 27.21128417 104 0 104 C0 69.68 0 35.36 0 0 Z " fill="#8F6C43" transform="translate(520,377)"/>
<path d="M0 0 C27.67333333 0 27.67333333 0 34.53515625 6.34375 C36.33593975 9.60917075 36.50259909 11.78501185 36.4375 15.5 C36.43621094 16.6034375 36.43492187 17.706875 36.43359375 18.84375 C35.78035265 23.59887437 33.95619563 26.13709175 30.4375 29.3125 C28 31 28 31 26 31 C26.99580078 32.68416016 26.99580078 32.68416016 28.01171875 34.40234375 C32.43045226 41.88746113 36.83726912 49.36832672 41 57 C37.79158589 57.70714417 35.18257182 57.90533102 32 57 C28.43578482 52.9119798 26.4315447 47.78547578 24.1484375 42.90820312 C23.63796875 41.91884766 23.1275 40.92949219 22.6015625 39.91015625 C22.17182129 38.99371338 21.74208008 38.07727051 21.29931641 37.13305664 C18.17099413 33.79532524 18.17099413 33.79532524 8 34 C8 41.59 8 49.18 8 57 C5.36 57 2.72 57 0 57 C0 38.19 0 19.38 0 0 Z " fill="#090704" transform="translate(495,797)"/>
<path d="M0 0 C1.2684375 -0.00773438 2.536875 -0.01546875 3.84375 -0.0234375 C7.84515855 0.41261343 10.17577133 1.11108565 13.5 3.375 C16.44212196 8.03194634 16.90980953 12.02011373 16.79296875 17.3984375 C16.78872391 18.14461334 16.78447906 18.89078918 16.78010559 19.65957642 C16.76342382 22.02343098 16.72579339 24.38640676 16.6875 26.75 C16.67243949 28.3606647 16.65875348 29.97134287 16.64648438 31.58203125 C16.61355504 35.51335515 16.56184762 39.44402901 16.5 43.375 C14.52 43.375 12.54 43.375 10.5 43.375 C10.5 41.725 10.5 40.075 10.5 38.375 C9.68595703 38.89900391 9.68595703 38.89900391 8.85546875 39.43359375 C8.14003906 39.88863281 7.42460938 40.34367188 6.6875 40.8125 C5.62595703 41.49119141 5.62595703 41.49119141 4.54296875 42.18359375 C0.04065137 44.80922817 -4.42403985 44.99973356 -9.5 44.375 C-13.8498054 42.2000973 -16.76209405 39.97533928 -18.5 35.375 C-18.79557592 30.53830309 -17.97435465 27.17547348 -15.5 23 C-8.14533436 16.56466757 0.12052526 16.98358452 9.5 17.375 C9.04177532 13.90558454 8.60868317 10.70104951 7.5 7.375 C1.62989379 5.41829793 -2.95926927 6.0663622 -8.5 8.375 C-10.8125 8 -10.8125 8 -12.5 7.375 C-12.83 6.055 -13.16 4.735 -13.5 3.375 C-8.82916044 0.65034359 -5.38833437 -0.0328557 0 0 Z " fill="#060503" transform="translate(617.5,810.625)"/>
<path d="M0 0 C2.31 0 4.62 0 7 0 C10.3035526 6.27228567 12.85460715 12.64532324 15.25 19.3125 C15.61351562 20.30056641 15.97703125 21.28863281 16.3515625 22.30664062 C16.69445312 23.25345703 17.03734375 24.20027344 17.390625 25.17578125 C17.70032227 26.03083252 18.01001953 26.88588379 18.32910156 27.7668457 C19 30 19 30 19 33 C19.66 33 20.32 33 21 33 C21.23460937 31.77410156 21.46921875 30.54820312 21.7109375 29.28515625 C23.08213029 23.1147887 25.35429164 17.32360183 27.625 11.4375 C28.04523437 10.33341797 28.46546875 9.22933594 28.8984375 8.09179688 C29.92678976 5.39237219 30.9607405 2.69523999 32 0 C34.64 0 37.28 0 40 0 C37.98619969 6.1674033 35.83637435 12.2701693 33.56640625 18.34765625 C33.24719711 19.20379013 32.92798798 20.05992401 32.59910583 20.94200134 C31.92853537 22.73811628 31.25706098 24.53389398 30.5847168 26.3293457 C29.5644985 29.05715651 28.55074429 31.78731531 27.53710938 34.51757812 C26.88060518 36.27358592 26.223717 38.02945021 25.56640625 39.78515625 C25.26835587 40.59058365 24.97030548 41.39601105 24.66322327 42.22584534 C18.66086486 58.16956757 18.66086486 58.16956757 11 62 C9.3146804 62.09534254 7.62550734 62.12985758 5.9375 62.125 C4.58978516 62.12886719 4.58978516 62.12886719 3.21484375 62.1328125 C1 62 1 62 0 61 C-0.04063832 59.33382885 -0.042721 57.66611905 0 56 C0.67546875 55.92523437 1.3509375 55.85046875 2.046875 55.7734375 C7.93970814 54.92777985 7.93970814 54.92777985 12.5625 51.375 C14.82106869 46.07227351 15.75264299 41.4301886 13.84423828 35.95825195 C13.27122538 34.54404345 12.67900103 33.13750523 12.0703125 31.73828125 C11.7605246 30.98459763 11.45073669 30.230914 11.13156128 29.45439148 C10.14639571 27.06625247 9.13694879 24.68939737 8.125 22.3125 C7.12511344 19.92313252 6.13044882 17.53171086 5.13986206 15.13847351 C4.52419414 13.65547785 3.90235146 12.17502599 3.27346802 10.69758606 C1.78477242 7.15483964 0.56942109 3.80864011 0 0 Z " fill="#060402" transform="translate(556,811)"/>
<path d="M0 0 C3.5578125 -0.0928125 3.5578125 -0.0928125 7.1875 -0.1875 C8.29387817 -0.22846802 8.29387817 -0.22846802 9.42260742 -0.27026367 C13.827366 -0.32558339 16.5179177 0.29171377 20 3 C21.73007568 6.46015135 21.4835273 10.21672555 21 14 C18.88608123 17.49890004 17.88263941 18.70578686 14 20 C9.33032246 20.13590447 4.67262015 20.04286807 0 20 C0 13.4 0 6.8 0 0 Z " fill="#8E6B43" transform="translate(503,804)"/>
<path d="M0 0 C2.31 0 4.62 0 7 0 C7 14.19 7 28.38 7 43 C4.69 43 2.38 43 0 43 C0 28.81 0 14.62 0 0 Z " fill="#090704" transform="translate(542,811)"/>
<path d="M0 0 C1.46373047 0.02707031 1.46373047 0.02707031 2.95703125 0.0546875 C3.69308594 0.07789063 4.42914062 0.10109375 5.1875 0.125 C5.50056141 5.34269009 5.16611836 8.75635974 2.1875 13.125 C-2.13597573 16.07282436 -5.63155535 16.70066052 -10.8125 16.125 C-13.25 15.0625 -13.25 15.0625 -14.8125 13.125 C-15.3850559 9.18867822 -15.50409814 7.07274559 -13.125 3.8125 C-8.8484255 0.69175644 -5.25621925 -0.12665589 0 0 Z " fill="#886740" transform="translate(621.8125,832.875)"/>
<path d="M0 0 C4.55555556 0.55555556 4.55555556 0.55555556 6 2 C6.125 5 6.125 5 6 8 C5 9 5 9 2 9.125 C-1 9 -1 9 -2 8 C-2.1875 5.0625 -2.1875 5.0625 -2 2 C-1.34 1.34 -0.68 0.68 0 0 Z " fill="#090704" transform="translate(544,795)"/>
</svg>
